solid CATIA STL
  facet normal  1.000000e+000  0.000000e+000  0.000000e+000
    outer loop
      vertex -3.000000e+000  1.280394e+002  1.426374e+002
      vertex -3.000000e+000  1.323626e+002  1.469606e+002
      vertex -3.000000e+000  1.287338e+002  1.469462e+002
    endloop
  endfacet
  facet normal  1.000000e+000  0.000000e+000  0.000000e+000
    outer loop
      vertex -3.000000e+000  1.280394e+002  1.426374e+002
      vertex -3.000000e+000  1.287338e+002  1.469462e+002
      vertex -3.000000e+000  1.285002e+002  1.466369e+002
    endloop
  endfacet
  facet normal  1.000000e+000  0.000000e+000  0.000000e+000
    outer loop
      vertex -3.000000e+000  1.280394e+002  1.426374e+002
      vertex -3.000000e+000  1.285002e+002  1.466369e+002
      vertex -3.000000e+000  1.282139e+002  1.463758e+002
    endloop
  endfacet
  facet normal  1.000000e+000  0.000000e+000  0.000000e+000
    outer loop
      vertex -3.000000e+000  1.280394e+002  1.426374e+002
      vertex -3.000000e+000  1.282139e+002  1.463758e+002
      vertex -3.000000e+000  1.278844e+002  1.461718e+002
    endloop
  endfacet
  facet normal  1.000000e+000  0.000000e+000  0.000000e+000
    outer loop
      vertex -3.000000e+000  1.280394e+002  1.426374e+002
      vertex -3.000000e+000  1.278844e+002  1.461718e+002
      vertex -3.000000e+000  1.275230e+002  1.460318e+002
    endloop
  endfacet
  facet normal  9.999999e-001  0.000000e+000  0.000000e+000
    outer loop
      vertex -3.000000e+000  1.280394e+002  1.426374e+002
      vertex -3.000000e+000  1.275230e+002  1.460318e+002
      vertex -3.000000e+000  1.271421e+002  1.459606e+002
    endloop
  endfacet
  facet normal  9.999999e-001  0.000000e+000  0.000000e+000
    outer loop
      vertex -3.000000e+000  1.280394e+002  1.426374e+002
      vertex -3.000000e+000  1.271421e+002  1.459606e+002
      vertex -3.000000e+000  1.267546e+002  1.459606e+002
    endloop
  endfacet
  facet normal  1.000000e+000  0.000000e+000  0.000000e+000
    outer loop
      vertex -3.000000e+000  1.280394e+002  1.426374e+002
      vertex -3.000000e+000  1.267546e+002  1.459606e+002
      vertex -3.000000e+000  1.263736e+002  1.460318e+002
    endloop
  endfacet
  facet normal  9.999999e-001  0.000000e+000  0.000000e+000
    outer loop
      vertex -3.000000e+000  1.280394e+002  1.426374e+002
      vertex -3.000000e+000  1.263736e+002  1.460318e+002
      vertex -3.000000e+000  1.260123e+002  1.461718e+002
    endloop
  endfacet
  facet normal  1.000000e+000  0.000000e+000  0.000000e+000
    outer loop
      vertex -3.000000e+000  1.280394e+002  1.426374e+002
      vertex -3.000000e+000  1.260123e+002  1.461718e+002
      vertex -3.000000e+000  1.256828e+002  1.463758e+002
    endloop
  endfacet
  facet normal  1.000000e+000  0.000000e+000  0.000000e+000
    outer loop
      vertex -3.000000e+000  1.280394e+002  1.426374e+002
      vertex -3.000000e+000  1.256828e+002  1.463758e+002
      vertex -3.000000e+000  1.253964e+002  1.466369e+002
    endloop
  endfacet
  facet normal  1.000000e+000  0.000000e+000  0.000000e+000
    outer loop
      vertex -3.000000e+000  1.280394e+002  1.426374e+002
      vertex -3.000000e+000  1.253964e+002  1.466369e+002
      vertex -3.000000e+000  1.251629e+002  1.469462e+002
    endloop
  endfacet
  facet normal  1.000000e+000  0.000000e+000  0.000000e+000
    outer loop
      vertex -3.000000e+000  1.280394e+002  1.426374e+002
      vertex -3.000000e+000  1.251629e+002  1.469462e+002
      vertex -3.000000e+000  1.219777e+002  1.486990e+002
    endloop
  endfacet
  facet normal  1.000000e+000  -0.000000e+000  0.000000e+000
    outer loop
      vertex -3.000000e+000  1.263010e+002  1.530223e+002
      vertex -3.000000e+000  1.251535e+002  1.520100e+002
      vertex -3.000000e+000  1.240492e+002  1.509508e+002
    endloop
  endfacet
  facet normal  1.000000e+000  -0.000000e+000  0.000000e+000
    outer loop
      vertex -3.000000e+000  1.263010e+002  1.530223e+002
      vertex -3.000000e+000  1.240492e+002  1.509508e+002
      vertex -3.000000e+000  1.267546e+002  1.501427e+002
    endloop
  endfacet
  facet normal  1.000000e+000  0.000000e+000  -0.000000e+000
    outer loop
      vertex -3.000000e+000  1.263010e+002  1.530223e+002
      vertex -3.000000e+000  1.267546e+002  1.501427e+002
      vertex -3.000000e+000  1.271421e+002  1.501427e+002
    endloop
  endfacet
  facet normal  1.000000e+000  -0.000000e+000  -0.000000e+000
    outer loop
      vertex -3.000000e+000  1.263010e+002  1.530223e+002
      vertex -3.000000e+000  1.271421e+002  1.501427e+002
      vertex -3.000000e+000  1.275230e+002  1.500715e+002
    endloop
  endfacet
  facet normal  1.000000e+000  -0.000000e+000  -0.000000e+000
    outer loop
      vertex -3.000000e+000  1.263010e+002  1.530223e+002
      vertex -3.000000e+000  1.275230e+002  1.500715e+002
      vertex -3.000000e+000  1.278844e+002  1.499315e+002
    endloop
  endfacet
  facet normal  1.000000e+000  -0.000000e+000  -0.000000e+000
    outer loop
      vertex -3.000000e+000  1.263010e+002  1.530223e+002
      vertex -3.000000e+000  1.278844e+002  1.499315e+002
      vertex -3.000000e+000  1.282139e+002  1.497275e+002
    endloop
  endfacet
  facet normal  1.000000e+000  -0.000000e+000  -0.000000e+000
    outer loop
      vertex -3.000000e+000  1.263010e+002  1.530223e+002
      vertex -3.000000e+000  1.282139e+002  1.497275e+002
      vertex -3.000000e+000  1.323626e+002  1.469606e+002
    endloop
  endfacet
  facet normal  1.000000e+000  0.000000e+000  0.000000e+000
    outer loop
      vertex -3.000000e+000  1.323626e+002  1.469606e+002
      vertex -3.000000e+000  1.282139e+002  1.497275e+002
      vertex -3.000000e+000  1.285002e+002  1.494664e+002
    endloop
  endfacet
  facet normal  1.000000e+000  0.000000e+000  0.000000e+000
    outer loop
      vertex -3.000000e+000  1.323626e+002  1.469606e+002
      vertex -3.000000e+000  1.285002e+002  1.494664e+002
      vertex -3.000000e+000  1.287338e+002  1.491572e+002
    endloop
  endfacet
  facet normal  1.000000e+000  0.000000e+000  0.000000e+000
    outer loop
      vertex -3.000000e+000  1.323626e+002  1.469606e+002
      vertex -3.000000e+000  1.287338e+002  1.491572e+002
      vertex -3.000000e+000  1.289065e+002  1.488103e+002
    endloop
  endfacet
  facet normal  1.000000e+000  0.000000e+000  0.000000e+000
    outer loop
      vertex -3.000000e+000  1.323626e+002  1.469606e+002
      vertex -3.000000e+000  1.289065e+002  1.488103e+002
      vertex -3.000000e+000  1.290126e+002  1.484376e+002
    endloop
  endfacet
  facet normal  1.000000e+000  0.000000e+000  0.000000e+000
    outer loop
      vertex -3.000000e+000  1.323626e+002  1.469606e+002
      vertex -3.000000e+000  1.290126e+002  1.484376e+002
      vertex -3.000000e+000  1.290483e+002  1.480517e+002
    endloop
  endfacet
  facet normal  9.999999e-001  0.000000e+000  0.000000e+000
    outer loop
      vertex -3.000000e+000  1.323626e+002  1.469606e+002
      vertex -3.000000e+000  1.290483e+002  1.480517e+002
      vertex -3.000000e+000  1.290126e+002  1.476658e+002
    endloop
  endfacet
  facet normal  1.000000e+000  0.000000e+000  0.000000e+000
    outer loop
      vertex -3.000000e+000  1.323626e+002  1.469606e+002
      vertex -3.000000e+000  1.290126e+002  1.476658e+002
      vertex -3.000000e+000  1.289065e+002  1.472931e+002
    endloop
  endfacet
  facet normal  1.000000e+000  0.000000e+000  0.000000e+000
    outer loop
      vertex -3.000000e+000  1.323626e+002  1.469606e+002
      vertex -3.000000e+000  1.289065e+002  1.472931e+002
      vertex -3.000000e+000  1.287338e+002  1.469462e+002
    endloop
  endfacet
  facet normal  1.000000e+000  0.000000e+000  0.000000e+000
    outer loop
      vertex -3.000000e+000  1.219777e+002  1.486990e+002
      vertex -3.000000e+000  1.251629e+002  1.469462e+002
      vertex -3.000000e+000  1.249901e+002  1.472931e+002
    endloop
  endfacet
  facet normal  1.000000e+000  0.000000e+000  0.000000e+000
    outer loop
      vertex -3.000000e+000  1.219777e+002  1.486990e+002
      vertex -3.000000e+000  1.249901e+002  1.472931e+002
      vertex -3.000000e+000  1.248841e+002  1.476658e+002
    endloop
  endfacet
  facet normal  1.000000e+000  0.000000e+000  0.000000e+000
    outer loop
      vertex -3.000000e+000  1.219777e+002  1.486990e+002
      vertex -3.000000e+000  1.248841e+002  1.476658e+002
      vertex -3.000000e+000  1.248483e+002  1.480517e+002
    endloop
  endfacet
  facet normal  1.000000e+000  0.000000e+000  -0.000000e+000
    outer loop
      vertex -3.000000e+000  1.219777e+002  1.486990e+002
      vertex -3.000000e+000  1.248483e+002  1.480517e+002
      vertex -3.000000e+000  1.248841e+002  1.484376e+002
    endloop
  endfacet
  facet normal  1.000000e+000  0.000000e+000  -0.000000e+000
    outer loop
      vertex -3.000000e+000  1.219777e+002  1.486990e+002
      vertex -3.000000e+000  1.248841e+002  1.484376e+002
      vertex -3.000000e+000  1.249901e+002  1.488103e+002
    endloop
  endfacet
  facet normal  1.000000e+000  0.000000e+000  -0.000000e+000
    outer loop
      vertex -3.000000e+000  1.219777e+002  1.486990e+002
      vertex -3.000000e+000  1.249901e+002  1.488103e+002
      vertex -3.000000e+000  1.251629e+002  1.491572e+002
    endloop
  endfacet
  facet normal  1.000000e+000  0.000000e+000  -0.000000e+000
    outer loop
      vertex -3.000000e+000  1.219777e+002  1.486990e+002
      vertex -3.000000e+000  1.251629e+002  1.491572e+002
      vertex -3.000000e+000  1.253964e+002  1.494664e+002
    endloop
  endfacet
  facet normal  1.000000e+000  0.000000e+000  -0.000000e+000
    outer loop
      vertex -3.000000e+000  1.219777e+002  1.486990e+002
      vertex -3.000000e+000  1.253964e+002  1.494664e+002
      vertex -3.000000e+000  1.256828e+002  1.497275e+002
    endloop
  endfacet
  facet normal  1.000000e+000  0.000000e+000  -0.000000e+000
    outer loop
      vertex -3.000000e+000  1.219777e+002  1.486990e+002
      vertex -3.000000e+000  1.256828e+002  1.497275e+002
      vertex -3.000000e+000  1.260123e+002  1.499315e+002
    endloop
  endfacet
  facet normal  1.000000e+000  0.000000e+000  0.000000e+000
    outer loop
      vertex -3.000000e+000  1.219777e+002  1.486990e+002
      vertex -3.000000e+000  1.260123e+002  1.499315e+002
      vertex -3.000000e+000  1.229900e+002  1.498465e+002
    endloop
  endfacet
  facet normal  1.000000e+000  0.000000e+000  0.000000e+000
    outer loop
      vertex -3.000000e+000  1.260123e+002  1.499315e+002
      vertex -3.000000e+000  1.263736e+002  1.500715e+002
      vertex -3.000000e+000  1.229900e+002  1.498465e+002
    endloop
  endfacet
  facet normal  1.000000e+000  0.000000e+000  0.000000e+000
    outer loop
      vertex -3.000000e+000  1.229900e+002  1.498465e+002
      vertex -3.000000e+000  1.263736e+002  1.500715e+002
      vertex -3.000000e+000  1.267546e+002  1.501427e+002
    endloop
  endfacet
  facet normal  1.000000e+000  0.000000e+000  0.000000e+000
    outer loop
      vertex -3.000000e+000  1.229900e+002  1.498465e+002
      vertex -3.000000e+000  1.267546e+002  1.501427e+002
      vertex -3.000000e+000  1.240492e+002  1.509508e+002
    endloop
  endfacet
  facet normal  0.000000e+000  7.071068e-001  7.071068e-001
    outer loop
      vertex -1.800000e+001  1.263010e+002  1.530223e+002
      vertex -1.340000e+001  1.323626e+002  1.469606e+002
      vertex -1.800000e+001  1.339044e+002  1.454189e+002
    endloop
  endfacet
  facet normal  -0.000000e+000  7.071068e-001  7.071068e-001
    outer loop
      vertex -1.800000e+001  1.339044e+002  1.454189e+002
      vertex -1.340000e+001  1.323626e+002  1.469606e+002
      vertex -1.640000e+001  1.339044e+002  1.454189e+002
    endloop
  endfacet
  facet normal  0.000000e+000  7.071068e-001  7.071068e-001
    outer loop
      vertex -1.340000e+001  1.323626e+002  1.469606e+002
      vertex -1.340000e+001  1.358982e+002  1.434251e+002
      vertex -1.640000e+001  1.339044e+002  1.454189e+002
    endloop
  endfacet
  facet normal  0.000000e+000  7.071068e-001  7.071068e-001
    outer loop
      vertex -1.640000e+001  1.339044e+002  1.454189e+002
      vertex -1.340000e+001  1.358982e+002  1.434251e+002
      vertex -1.640000e+001  1.358982e+002  1.434251e+002
    endloop
  endfacet
  facet normal  0.000000e+000  7.071068e-001  7.071068e-001
    outer loop
      vertex -1.340000e+001  1.323626e+002  1.469606e+002
      vertex -1.800000e+001  1.263010e+002  1.530223e+002
      vertex -3.000000e+000  1.323626e+002  1.469606e+002
    endloop
  endfacet
  facet normal  0.000000e+000  7.071068e-001  7.071068e-001
    outer loop
      vertex -3.000000e+000  1.323626e+002  1.469606e+002
      vertex -1.800000e+001  1.263010e+002  1.530223e+002
      vertex -3.000000e+000  1.263010e+002  1.530223e+002
    endloop
  endfacet
  facet normal  -0.000000e+000 -7.071068e-001 -7.071068e-001
    outer loop
      vertex -1.340000e+001  1.280394e+002  1.426374e+002
      vertex -3.000000e+000  1.280394e+002  1.426374e+002
      vertex -3.000000e+000  1.219777e+002  1.486990e+002
    endloop
  endfacet
  facet normal  -0.000000e+000 -7.071068e-001 -7.071068e-001
    outer loop
      vertex -1.340000e+001  1.280394e+002  1.426374e+002
      vertex -3.000000e+000  1.219777e+002  1.486990e+002
      vertex -1.800000e+001  1.219777e+002  1.486990e+002
    endloop
  endfacet
  facet normal  0.000000e+000 -7.071068e-001 -7.071068e-001
    outer loop
      vertex -1.340000e+001  1.280394e+002  1.426374e+002
      vertex -1.800000e+001  1.219777e+002  1.486990e+002
      vertex -1.800000e+001  1.295811e+002  1.410956e+002
    endloop
  endfacet
  facet normal  0.000000e+000 -7.071068e-001 -7.071068e-001
    outer loop
      vertex -1.340000e+001  1.280394e+002  1.426374e+002
      vertex -1.800000e+001  1.295811e+002  1.410956e+002
      vertex -1.640000e+001  1.295811e+002  1.410956e+002
    endloop
  endfacet
  facet normal  0.000000e+000 -7.071068e-001 -7.071068e-001
    outer loop
      vertex -1.340000e+001  1.280394e+002  1.426374e+002
      vertex -1.640000e+001  1.295811e+002  1.410956e+002
      vertex -1.640000e+001  1.315749e+002  1.391018e+002
    endloop
  endfacet
  facet normal  0.000000e+000 -7.071068e-001 -7.071068e-001
    outer loop
      vertex -1.340000e+001  1.280394e+002  1.426374e+002
      vertex -1.640000e+001  1.315749e+002  1.391018e+002
      vertex -1.340000e+001  1.315749e+002  1.391018e+002
    endloop
  endfacet
  facet normal  0.000000e+000  7.071068e-001 -7.071068e-001
    outer loop
      vertex -1.640000e+001  1.315749e+002  1.391018e+002
      vertex -1.640000e+001  1.358982e+002  1.434251e+002
      vertex -1.340000e+001  1.315749e+002  1.391018e+002
    endloop
  endfacet
  facet normal  0.000000e+000  7.071068e-001 -7.071068e-001
    outer loop
      vertex -1.340000e+001  1.315749e+002  1.391018e+002
      vertex -1.640000e+001  1.358982e+002  1.434251e+002
      vertex -1.340000e+001  1.358982e+002  1.434251e+002
    endloop
  endfacet
  facet normal  9.999999e-001  0.000000e+000  -0.000000e+000
    outer loop
      vertex -1.340000e+001  1.280394e+002  1.426374e+002
      vertex -1.340000e+001  1.315749e+002  1.391018e+002
      vertex -1.340000e+001  1.323626e+002  1.469606e+002
    endloop
  endfacet
  facet normal  9.999999e-001  0.000000e+000  0.000000e+000
    outer loop
      vertex -1.340000e+001  1.323626e+002  1.469606e+002
      vertex -1.340000e+001  1.315749e+002  1.391018e+002
      vertex -1.340000e+001  1.358982e+002  1.434251e+002
    endloop
  endfacet
  facet normal  0.000000e+000  7.071068e-001 -7.071068e-001
    outer loop
      vertex -1.340000e+001  1.280394e+002  1.426374e+002
      vertex -1.340000e+001  1.323626e+002  1.469606e+002
      vertex -3.000000e+000  1.280394e+002  1.426374e+002
    endloop
  endfacet
  facet normal  0.000000e+000  7.071068e-001 -7.071068e-001
    outer loop
      vertex -3.000000e+000  1.280394e+002  1.426374e+002
      vertex -1.340000e+001  1.323626e+002  1.469606e+002
      vertex -3.000000e+000  1.323626e+002  1.469606e+002
    endloop
  endfacet
  facet normal -1.000000e+000  0.000000e+000  -0.000000e+000
    outer loop
      vertex -1.800000e+001  1.219777e+002  1.486990e+002
      vertex -1.800000e+001  1.229900e+002  1.498465e+002
      vertex -1.800000e+001  1.260123e+002  1.499315e+002
    endloop
  endfacet
  facet normal -1.000000e+000  0.000000e+000  0.000000e+000
    outer loop
      vertex -1.800000e+001  1.219777e+002  1.486990e+002
      vertex -1.800000e+001  1.260123e+002  1.499315e+002
      vertex -1.800000e+001  1.256828e+002  1.497275e+002
    endloop
  endfacet
  facet normal -1.000000e+000  0.000000e+000  0.000000e+000
    outer loop
      vertex -1.800000e+001  1.219777e+002  1.486990e+002
      vertex -1.800000e+001  1.256828e+002  1.497275e+002
      vertex -1.800000e+001  1.253964e+002  1.494664e+002
    endloop
  endfacet
  facet normal -1.000000e+000  0.000000e+000  0.000000e+000
    outer loop
      vertex -1.800000e+001  1.219777e+002  1.486990e+002
      vertex -1.800000e+001  1.253964e+002  1.494664e+002
      vertex -1.800000e+001  1.251629e+002  1.491572e+002
    endloop
  endfacet
  facet normal -1.000000e+000  0.000000e+000  0.000000e+000
    outer loop
      vertex -1.800000e+001  1.219777e+002  1.486990e+002
      vertex -1.800000e+001  1.251629e+002  1.491572e+002
      vertex -1.800000e+001  1.249901e+002  1.488103e+002
    endloop
  endfacet
  facet normal -1.000000e+000  0.000000e+000  0.000000e+000
    outer loop
      vertex -1.800000e+001  1.219777e+002  1.486990e+002
      vertex -1.800000e+001  1.249901e+002  1.488103e+002
      vertex -1.800000e+001  1.248841e+002  1.484376e+002
    endloop
  endfacet
  facet normal -1.000000e+000  -0.000000e+000  0.000000e+000
    outer loop
      vertex -1.800000e+001  1.219777e+002  1.486990e+002
      vertex -1.800000e+001  1.248841e+002  1.484376e+002
      vertex -1.800000e+001  1.248483e+002  1.480517e+002
    endloop
  endfacet
  facet normal -1.000000e+000  -0.000000e+000  -0.000000e+000
    outer loop
      vertex -1.800000e+001  1.219777e+002  1.486990e+002
      vertex -1.800000e+001  1.248483e+002  1.480517e+002
      vertex -1.800000e+001  1.248841e+002  1.476658e+002
    endloop
  endfacet
  facet normal -1.000000e+000  -0.000000e+000  -0.000000e+000
    outer loop
      vertex -1.800000e+001  1.219777e+002  1.486990e+002
      vertex -1.800000e+001  1.248841e+002  1.476658e+002
      vertex -1.800000e+001  1.249901e+002  1.472931e+002
    endloop
  endfacet
  facet normal -1.000000e+000  -0.000000e+000  -0.000000e+000
    outer loop
      vertex -1.800000e+001  1.219777e+002  1.486990e+002
      vertex -1.800000e+001  1.249901e+002  1.472931e+002
      vertex -1.800000e+001  1.251629e+002  1.469462e+002
    endloop
  endfacet
  facet normal -9.999999e-001  -0.000000e+000  -0.000000e+000
    outer loop
      vertex -1.800000e+001  1.219777e+002  1.486990e+002
      vertex -1.800000e+001  1.251629e+002  1.469462e+002
      vertex -1.800000e+001  1.253964e+002  1.466369e+002
    endloop
  endfacet
  facet normal -1.000000e+000  -0.000000e+000  -0.000000e+000
    outer loop
      vertex -1.800000e+001  1.219777e+002  1.486990e+002
      vertex -1.800000e+001  1.253964e+002  1.466369e+002
      vertex -1.800000e+001  1.295811e+002  1.410956e+002
    endloop
  endfacet
  facet normal -1.000000e+000  -0.000000e+000  0.000000e+000
    outer loop
      vertex -1.800000e+001  1.271421e+002  1.459606e+002
      vertex -1.800000e+001  1.339044e+002  1.454189e+002
      vertex -1.800000e+001  1.329601e+002  1.446377e+002
    endloop
  endfacet
  facet normal -1.000000e+000  -0.000000e+000  0.000000e+000
    outer loop
      vertex -1.800000e+001  1.271421e+002  1.459606e+002
      vertex -1.800000e+001  1.329601e+002  1.446377e+002
      vertex -1.800000e+001  1.320536e+002  1.438130e+002
    endloop
  endfacet
  facet normal -1.000000e+000  -0.000000e+000  0.000000e+000
    outer loop
      vertex -1.800000e+001  1.271421e+002  1.459606e+002
      vertex -1.800000e+001  1.320536e+002  1.438130e+002
      vertex -1.800000e+001  1.311870e+002  1.429464e+002
    endloop
  endfacet
  facet normal -9.999999e-001  -0.000000e+000  0.000000e+000
    outer loop
      vertex -1.800000e+001  1.271421e+002  1.459606e+002
      vertex -1.800000e+001  1.311870e+002  1.429464e+002
      vertex -1.800000e+001  1.303623e+002  1.420399e+002
    endloop
  endfacet
  facet normal -9.999999e-001  -0.000000e+000  0.000000e+000
    outer loop
      vertex -1.800000e+001  1.271421e+002  1.459606e+002
      vertex -1.800000e+001  1.303623e+002  1.420399e+002
      vertex -1.800000e+001  1.295811e+002  1.410956e+002
    endloop
  endfacet
  facet normal -9.999999e-001  0.000000e+000  0.000000e+000
    outer loop
      vertex -1.800000e+001  1.295811e+002  1.410956e+002
      vertex -1.800000e+001  1.253964e+002  1.466369e+002
      vertex -1.800000e+001  1.256828e+002  1.463758e+002
    endloop
  endfacet
  facet normal -1.000000e+000  0.000000e+000  0.000000e+000
    outer loop
      vertex -1.800000e+001  1.295811e+002  1.410956e+002
      vertex -1.800000e+001  1.256828e+002  1.463758e+002
      vertex -1.800000e+001  1.260123e+002  1.461718e+002
    endloop
  endfacet
  facet normal -1.000000e+000  0.000000e+000  0.000000e+000
    outer loop
      vertex -1.800000e+001  1.295811e+002  1.410956e+002
      vertex -1.800000e+001  1.260123e+002  1.461718e+002
      vertex -1.800000e+001  1.263736e+002  1.460318e+002
    endloop
  endfacet
  facet normal -1.000000e+000  0.000000e+000  0.000000e+000
    outer loop
      vertex -1.800000e+001  1.295811e+002  1.410956e+002
      vertex -1.800000e+001  1.263736e+002  1.460318e+002
      vertex -1.800000e+001  1.267546e+002  1.459606e+002
    endloop
  endfacet
  facet normal -1.000000e+000  0.000000e+000  0.000000e+000
    outer loop
      vertex -1.800000e+001  1.295811e+002  1.410956e+002
      vertex -1.800000e+001  1.267546e+002  1.459606e+002
      vertex -1.800000e+001  1.271421e+002  1.459606e+002
    endloop
  endfacet
  facet normal -1.000000e+000  0.000000e+000  0.000000e+000
    outer loop
      vertex -1.800000e+001  1.263010e+002  1.530223e+002
      vertex -1.800000e+001  1.339044e+002  1.454189e+002
      vertex -1.800000e+001  1.282139e+002  1.497275e+002
    endloop
  endfacet
  facet normal -1.000000e+000  0.000000e+000  0.000000e+000
    outer loop
      vertex -1.800000e+001  1.263010e+002  1.530223e+002
      vertex -1.800000e+001  1.282139e+002  1.497275e+002
      vertex -1.800000e+001  1.278844e+002  1.499315e+002
    endloop
  endfacet
  facet normal -1.000000e+000  0.000000e+000  0.000000e+000
    outer loop
      vertex -1.800000e+001  1.263010e+002  1.530223e+002
      vertex -1.800000e+001  1.278844e+002  1.499315e+002
      vertex -1.800000e+001  1.275230e+002  1.500715e+002
    endloop
  endfacet
  facet normal -1.000000e+000  0.000000e+000  0.000000e+000
    outer loop
      vertex -1.800000e+001  1.263010e+002  1.530223e+002
      vertex -1.800000e+001  1.275230e+002  1.500715e+002
      vertex -1.800000e+001  1.271421e+002  1.501427e+002
    endloop
  endfacet
  facet normal -1.000000e+000  0.000000e+000  0.000000e+000
    outer loop
      vertex -1.800000e+001  1.263010e+002  1.530223e+002
      vertex -1.800000e+001  1.271421e+002  1.501427e+002
      vertex -1.800000e+001  1.267546e+002  1.501427e+002
    endloop
  endfacet
  facet normal -1.000000e+000  0.000000e+000  0.000000e+000
    outer loop
      vertex -1.800000e+001  1.263010e+002  1.530223e+002
      vertex -1.800000e+001  1.267546e+002  1.501427e+002
      vertex -1.800000e+001  1.240492e+002  1.509508e+002
    endloop
  endfacet
  facet normal -1.000000e+000  0.000000e+000  0.000000e+000
    outer loop
      vertex -1.800000e+001  1.263010e+002  1.530223e+002
      vertex -1.800000e+001  1.240492e+002  1.509508e+002
      vertex -1.800000e+001  1.251535e+002  1.520100e+002
    endloop
  endfacet
  facet normal -9.999999e-001  0.000000e+000  0.000000e+000
    outer loop
      vertex -1.800000e+001  1.339044e+002  1.454189e+002
      vertex -1.800000e+001  1.271421e+002  1.459606e+002
      vertex -1.800000e+001  1.275230e+002  1.460318e+002
    endloop
  endfacet
  facet normal -1.000000e+000  0.000000e+000  0.000000e+000
    outer loop
      vertex -1.800000e+001  1.339044e+002  1.454189e+002
      vertex -1.800000e+001  1.275230e+002  1.460318e+002
      vertex -1.800000e+001  1.278844e+002  1.461718e+002
    endloop
  endfacet
  facet normal -1.000000e+000  0.000000e+000  0.000000e+000
    outer loop
      vertex -1.800000e+001  1.339044e+002  1.454189e+002
      vertex -1.800000e+001  1.278844e+002  1.461718e+002
      vertex -1.800000e+001  1.282139e+002  1.463758e+002
    endloop
  endfacet
  facet normal -1.000000e+000  0.000000e+000  0.000000e+000
    outer loop
      vertex -1.800000e+001  1.339044e+002  1.454189e+002
      vertex -1.800000e+001  1.282139e+002  1.463758e+002
      vertex -1.800000e+001  1.285002e+002  1.466369e+002
    endloop
  endfacet
  facet normal -1.000000e+000  0.000000e+000  0.000000e+000
    outer loop
      vertex -1.800000e+001  1.339044e+002  1.454189e+002
      vertex -1.800000e+001  1.285002e+002  1.466369e+002
      vertex -1.800000e+001  1.287338e+002  1.469462e+002
    endloop
  endfacet
  facet normal -1.000000e+000  0.000000e+000  0.000000e+000
    outer loop
      vertex -1.800000e+001  1.339044e+002  1.454189e+002
      vertex -1.800000e+001  1.287338e+002  1.469462e+002
      vertex -1.800000e+001  1.289065e+002  1.472931e+002
    endloop
  endfacet
  facet normal -1.000000e+000  0.000000e+000  0.000000e+000
    outer loop
      vertex -1.800000e+001  1.339044e+002  1.454189e+002
      vertex -1.800000e+001  1.289065e+002  1.472931e+002
      vertex -1.800000e+001  1.290126e+002  1.476658e+002
    endloop
  endfacet
  facet normal -1.000000e+000  0.000000e+000  0.000000e+000
    outer loop
      vertex -1.800000e+001  1.339044e+002  1.454189e+002
      vertex -1.800000e+001  1.290126e+002  1.476658e+002
      vertex -1.800000e+001  1.290483e+002  1.480517e+002
    endloop
  endfacet
  facet normal -1.000000e+000  0.000000e+000  0.000000e+000
    outer loop
      vertex -1.800000e+001  1.339044e+002  1.454189e+002
      vertex -1.800000e+001  1.290483e+002  1.480517e+002
      vertex -1.800000e+001  1.290126e+002  1.484376e+002
    endloop
  endfacet
  facet normal -1.000000e+000  0.000000e+000  0.000000e+000
    outer loop
      vertex -1.800000e+001  1.339044e+002  1.454189e+002
      vertex -1.800000e+001  1.290126e+002  1.484376e+002
      vertex -1.800000e+001  1.289065e+002  1.488103e+002
    endloop
  endfacet
  facet normal -1.000000e+000  0.000000e+000  0.000000e+000
    outer loop
      vertex -1.800000e+001  1.339044e+002  1.454189e+002
      vertex -1.800000e+001  1.289065e+002  1.488103e+002
      vertex -1.800000e+001  1.287338e+002  1.491572e+002
    endloop
  endfacet
  facet normal -9.999999e-001  0.000000e+000  0.000000e+000
    outer loop
      vertex -1.800000e+001  1.339044e+002  1.454189e+002
      vertex -1.800000e+001  1.287338e+002  1.491572e+002
      vertex -1.800000e+001  1.285002e+002  1.494664e+002
    endloop
  endfacet
  facet normal -1.000000e+000  0.000000e+000  0.000000e+000
    outer loop
      vertex -1.800000e+001  1.339044e+002  1.454189e+002
      vertex -1.800000e+001  1.285002e+002  1.494664e+002
      vertex -1.800000e+001  1.282139e+002  1.497275e+002
    endloop
  endfacet
  facet normal -1.000000e+000  -0.000000e+000  0.000000e+000
    outer loop
      vertex -1.800000e+001  1.240492e+002  1.509508e+002
      vertex -1.800000e+001  1.267546e+002  1.501427e+002
      vertex -1.800000e+001  1.229900e+002  1.498465e+002
    endloop
  endfacet
  facet normal -1.000000e+000  0.000000e+000  0.000000e+000
    outer loop
      vertex -1.800000e+001  1.229900e+002  1.498465e+002
      vertex -1.800000e+001  1.267546e+002  1.501427e+002
      vertex -1.800000e+001  1.263736e+002  1.500715e+002
    endloop
  endfacet
  facet normal -1.000000e+000  0.000000e+000  0.000000e+000
    outer loop
      vertex -1.800000e+001  1.229900e+002  1.498465e+002
      vertex -1.800000e+001  1.263736e+002  1.500715e+002
      vertex -1.800000e+001  1.260123e+002  1.499315e+002
    endloop
  endfacet
  facet normal  0.000000e+000  6.730030e-001 -7.396398e-001
    outer loop
      vertex -1.640000e+001  1.320536e+002  1.438130e+002
      vertex -1.800000e+001  1.329601e+002  1.446377e+002
      vertex -1.640000e+001  1.329601e+002  1.446377e+002
    endloop
  endfacet
  facet normal  0.000000e+000  6.373977e-001 -7.705349e-001
    outer loop
      vertex -1.640000e+001  1.329601e+002  1.446377e+002
      vertex -1.800000e+001  1.329601e+002  1.446377e+002
      vertex -1.800000e+001  1.339044e+002  1.454189e+002
    endloop
  endfacet
  facet normal  0.000000e+000  6.373977e-001 -7.705349e-001
    outer loop
      vertex -1.640000e+001  1.329601e+002  1.446377e+002
      vertex -1.800000e+001  1.339044e+002  1.454189e+002
      vertex -1.640000e+001  1.339044e+002  1.454189e+002
    endloop
  endfacet
  facet normal  0.000000e+000  6.730030e-001 -7.396398e-001
    outer loop
      vertex -1.800000e+001  1.329601e+002  1.446377e+002
      vertex -1.640000e+001  1.320536e+002  1.438130e+002
      vertex -1.800000e+001  1.320536e+002  1.438130e+002
    endloop
  endfacet
  facet normal  0.000000e+000  7.071068e-001 -7.071068e-001
    outer loop
      vertex -1.800000e+001  1.320536e+002  1.438130e+002
      vertex -1.640000e+001  1.320536e+002  1.438130e+002
      vertex -1.640000e+001  1.311870e+002  1.429464e+002
    endloop
  endfacet
  facet normal  0.000000e+000  7.071068e-001 -7.071068e-001
    outer loop
      vertex -1.800000e+001  1.320536e+002  1.438130e+002
      vertex -1.640000e+001  1.311870e+002  1.429464e+002
      vertex -1.800000e+001  1.311870e+002  1.429464e+002
    endloop
  endfacet
  facet normal  0.000000e+000  7.396398e-001 -6.730030e-001
    outer loop
      vertex -1.800000e+001  1.311870e+002  1.429464e+002
      vertex -1.640000e+001  1.311870e+002  1.429464e+002
      vertex -1.640000e+001  1.303623e+002  1.420399e+002
    endloop
  endfacet
  facet normal  0.000000e+000  7.396398e-001 -6.730030e-001
    outer loop
      vertex -1.800000e+001  1.311870e+002  1.429464e+002
      vertex -1.640000e+001  1.303623e+002  1.420399e+002
      vertex -1.800000e+001  1.303623e+002  1.420399e+002
    endloop
  endfacet
  facet normal  0.000000e+000  7.705349e-001 -6.373977e-001
    outer loop
      vertex -1.800000e+001  1.303623e+002  1.420399e+002
      vertex -1.640000e+001  1.303623e+002  1.420399e+002
      vertex -1.640000e+001  1.295811e+002  1.410956e+002
    endloop
  endfacet
  facet normal  0.000000e+000  7.705349e-001 -6.373977e-001
    outer loop
      vertex -1.800000e+001  1.303623e+002  1.420399e+002
      vertex -1.640000e+001  1.295811e+002  1.410956e+002
      vertex -1.800000e+001  1.295811e+002  1.410956e+002
    endloop
  endfacet
  facet normal -1.000000e+000  0.000000e+000  0.000000e+000
    outer loop
      vertex -1.640000e+001  1.329601e+002  1.446377e+002
      vertex -1.640000e+001  1.339044e+002  1.454189e+002
      vertex -1.640000e+001  1.320536e+002  1.438130e+002
    endloop
  endfacet
  facet normal -1.000000e+000  0.000000e+000  0.000000e+000
    outer loop
      vertex -1.640000e+001  1.320536e+002  1.438130e+002
      vertex -1.640000e+001  1.339044e+002  1.454189e+002
      vertex -1.640000e+001  1.358982e+002  1.434251e+002
    endloop
  endfacet
  facet normal -1.000000e+000  -0.000000e+000  0.000000e+000
    outer loop
      vertex -1.640000e+001  1.320536e+002  1.438130e+002
      vertex -1.640000e+001  1.358982e+002  1.434251e+002
      vertex -1.640000e+001  1.311870e+002  1.429464e+002
    endloop
  endfacet
  facet normal -1.000000e+000  0.000000e+000  0.000000e+000
    outer loop
      vertex -1.640000e+001  1.311870e+002  1.429464e+002
      vertex -1.640000e+001  1.358982e+002  1.434251e+002
      vertex -1.640000e+001  1.315749e+002  1.391018e+002
    endloop
  endfacet
  facet normal -1.000000e+000  0.000000e+000  0.000000e+000
    outer loop
      vertex -1.640000e+001  1.311870e+002  1.429464e+002
      vertex -1.640000e+001  1.315749e+002  1.391018e+002
      vertex -1.640000e+001  1.303623e+002  1.420399e+002
    endloop
  endfacet
  facet normal -1.000000e+000  0.000000e+000  -0.000000e+000
    outer loop
      vertex -1.640000e+001  1.303623e+002  1.420399e+002
      vertex -1.640000e+001  1.315749e+002  1.391018e+002
      vertex -1.640000e+001  1.295811e+002  1.410956e+002
    endloop
  endfacet
  facet normal  0.000000e+000 -1.837239e-001 -9.829779e-001
    outer loop
      vertex -3.000000e+000  1.271421e+002  1.501427e+002
      vertex -1.800000e+001  1.275230e+002  1.500715e+002
      vertex -3.000000e+000  1.275230e+002  1.500715e+002
    endloop
  endfacet
  facet normal  -0.000000e+000 -3.612603e-001 -9.324650e-001
    outer loop
      vertex -3.000000e+000  1.275230e+002  1.500715e+002
      vertex -1.800000e+001  1.275230e+002  1.500715e+002
      vertex -1.800000e+001  1.278844e+002  1.499315e+002
    endloop
  endfacet
  facet normal  0.000000e+000 -3.612603e-001 -9.324650e-001
    outer loop
      vertex -3.000000e+000  1.275230e+002  1.500715e+002
      vertex -1.800000e+001  1.278844e+002  1.499315e+002
      vertex -3.000000e+000  1.278844e+002  1.499315e+002
    endloop
  endfacet
  facet normal  -0.000000e+000 -5.264089e-001 -8.502316e-001
    outer loop
      vertex -3.000000e+000  1.278844e+002  1.499315e+002
      vertex -1.800000e+001  1.278844e+002  1.499315e+002
      vertex -1.800000e+001  1.282139e+002  1.497275e+002
    endloop
  endfacet
  facet normal  0.000000e+000 -5.264089e-001 -8.502316e-001
    outer loop
      vertex -3.000000e+000  1.278844e+002  1.499315e+002
      vertex -1.800000e+001  1.282139e+002  1.497275e+002
      vertex -3.000000e+000  1.282139e+002  1.497275e+002
    endloop
  endfacet
  facet normal  -0.000000e+000 -6.736913e-001 -7.390130e-001
    outer loop
      vertex -3.000000e+000  1.282139e+002  1.497275e+002
      vertex -1.800000e+001  1.282139e+002  1.497275e+002
      vertex -1.800000e+001  1.285002e+002  1.494664e+002
    endloop
  endfacet
  facet normal  0.000000e+000 -6.736913e-001 -7.390130e-001
    outer loop
      vertex -3.000000e+000  1.282139e+002  1.497275e+002
      vertex -1.800000e+001  1.285002e+002  1.494664e+002
      vertex -3.000000e+000  1.285002e+002  1.494664e+002
    endloop
  endfacet
  facet normal  -0.000000e+000 -7.980159e-001 -6.026365e-001
    outer loop
      vertex -3.000000e+000  1.285002e+002  1.494664e+002
      vertex -1.800000e+001  1.285002e+002  1.494664e+002
      vertex -1.800000e+001  1.287338e+002  1.491572e+002
    endloop
  endfacet
  facet normal  0.000000e+000 -7.980159e-001 -6.026365e-001
    outer loop
      vertex -3.000000e+000  1.285002e+002  1.494664e+002
      vertex -1.800000e+001  1.287338e+002  1.491572e+002
      vertex -3.000000e+000  1.287338e+002  1.491572e+002
    endloop
  endfacet
  facet normal  -0.000000e+000 -8.951740e-001 -4.457167e-001
    outer loop
      vertex -3.000000e+000  1.287338e+002  1.491572e+002
      vertex -1.800000e+001  1.287338e+002  1.491572e+002
      vertex -1.800000e+001  1.289065e+002  1.488103e+002
    endloop
  endfacet
  facet normal  0.000000e+000 -8.951740e-001 -4.457167e-001
    outer loop
      vertex -3.000000e+000  1.287338e+002  1.491572e+002
      vertex -1.800000e+001  1.289065e+002  1.488103e+002
      vertex -3.000000e+000  1.289065e+002  1.488103e+002
    endloop
  endfacet
  facet normal  -0.000000e+000 -9.618264e-001 -2.736600e-001
    outer loop
      vertex -3.000000e+000  1.289065e+002  1.488103e+002
      vertex -1.800000e+001  1.289065e+002  1.488103e+002
      vertex -1.800000e+001  1.290126e+002  1.484376e+002
    endloop
  endfacet
  facet normal  0.000000e+000 -9.618264e-001 -2.736600e-001
    outer loop
      vertex -3.000000e+000  1.289065e+002  1.488103e+002
      vertex -1.800000e+001  1.290126e+002  1.484376e+002
      vertex -3.000000e+000  1.290126e+002  1.484376e+002
    endloop
  endfacet
  facet normal  -0.000000e+000 -9.957318e-001 -9.229291e-002
    outer loop
      vertex -3.000000e+000  1.290126e+002  1.484376e+002
      vertex -1.800000e+001  1.290126e+002  1.484376e+002
      vertex -1.800000e+001  1.290483e+002  1.480517e+002
    endloop
  endfacet
  facet normal  0.000000e+000 -9.957318e-001 -9.229291e-002
    outer loop
      vertex -3.000000e+000  1.290126e+002  1.484376e+002
      vertex -1.800000e+001  1.290483e+002  1.480517e+002
      vertex -3.000000e+000  1.290483e+002  1.480517e+002
    endloop
  endfacet
  facet normal  -0.000000e+000 -1.837239e-001 -9.829779e-001
    outer loop
      vertex -1.800000e+001  1.275230e+002  1.500715e+002
      vertex -3.000000e+000  1.271421e+002  1.501427e+002
      vertex -1.800000e+001  1.271421e+002  1.501427e+002
    endloop
  endfacet
  facet normal  0.000000e+000  0.000000e+000 -1.000000e+000
    outer loop
      vertex -1.800000e+001  1.271421e+002  1.501427e+002
      vertex -3.000000e+000  1.271421e+002  1.501427e+002
      vertex -3.000000e+000  1.267546e+002  1.501427e+002
    endloop
  endfacet
  facet normal  0.000000e+000  0.000000e+000 -1.000000e+000
    outer loop
      vertex -1.800000e+001  1.271421e+002  1.501427e+002
      vertex -3.000000e+000  1.267546e+002  1.501427e+002
      vertex -1.800000e+001  1.267546e+002  1.501427e+002
    endloop
  endfacet
  facet normal  0.000000e+000  1.837239e-001 -9.829779e-001
    outer loop
      vertex -1.800000e+001  1.267546e+002  1.501427e+002
      vertex -3.000000e+000  1.267546e+002  1.501427e+002
      vertex -3.000000e+000  1.263736e+002  1.500715e+002
    endloop
  endfacet
  facet normal  0.000000e+000  1.837239e-001 -9.829779e-001
    outer loop
      vertex -1.800000e+001  1.267546e+002  1.501427e+002
      vertex -3.000000e+000  1.263736e+002  1.500715e+002
      vertex -1.800000e+001  1.263736e+002  1.500715e+002
    endloop
  endfacet
  facet normal  0.000000e+000  3.612603e-001 -9.324650e-001
    outer loop
      vertex -1.800000e+001  1.263736e+002  1.500715e+002
      vertex -3.000000e+000  1.263736e+002  1.500715e+002
      vertex -3.000000e+000  1.260123e+002  1.499315e+002
    endloop
  endfacet
  facet normal  0.000000e+000  3.612603e-001 -9.324650e-001
    outer loop
      vertex -1.800000e+001  1.263736e+002  1.500715e+002
      vertex -3.000000e+000  1.260123e+002  1.499315e+002
      vertex -1.800000e+001  1.260123e+002  1.499315e+002
    endloop
  endfacet
  facet normal  0.000000e+000  5.264089e-001 -8.502316e-001
    outer loop
      vertex -1.800000e+001  1.260123e+002  1.499315e+002
      vertex -3.000000e+000  1.260123e+002  1.499315e+002
      vertex -3.000000e+000  1.256828e+002  1.497275e+002
    endloop
  endfacet
  facet normal  0.000000e+000  5.264089e-001 -8.502316e-001
    outer loop
      vertex -1.800000e+001  1.260123e+002  1.499315e+002
      vertex -3.000000e+000  1.256828e+002  1.497275e+002
      vertex -1.800000e+001  1.256828e+002  1.497275e+002
    endloop
  endfacet
  facet normal  0.000000e+000  6.737010e-001 -7.390040e-001
    outer loop
      vertex -1.800000e+001  1.256828e+002  1.497275e+002
      vertex -3.000000e+000  1.256828e+002  1.497275e+002
      vertex -3.000000e+000  1.253964e+002  1.494664e+002
    endloop
  endfacet
  facet normal  0.000000e+000  6.737010e-001 -7.390040e-001
    outer loop
      vertex -1.800000e+001  1.256828e+002  1.497275e+002
      vertex -3.000000e+000  1.253964e+002  1.494664e+002
      vertex -1.800000e+001  1.253964e+002  1.494664e+002
    endloop
  endfacet
  facet normal  0.000000e+000  7.980159e-001 -6.026365e-001
    outer loop
      vertex -1.800000e+001  1.253964e+002  1.494664e+002
      vertex -3.000000e+000  1.253964e+002  1.494664e+002
      vertex -3.000000e+000  1.251629e+002  1.491572e+002
    endloop
  endfacet
  facet normal  0.000000e+000  7.980159e-001 -6.026365e-001
    outer loop
      vertex -1.800000e+001  1.253964e+002  1.494664e+002
      vertex -3.000000e+000  1.251629e+002  1.491572e+002
      vertex -1.800000e+001  1.251629e+002  1.491572e+002
    endloop
  endfacet
  facet normal  0.000000e+000  8.951662e-001 -4.457325e-001
    outer loop
      vertex -1.800000e+001  1.251629e+002  1.491572e+002
      vertex -3.000000e+000  1.251629e+002  1.491572e+002
      vertex -3.000000e+000  1.249901e+002  1.488103e+002
    endloop
  endfacet
  facet normal  0.000000e+000  8.951662e-001 -4.457325e-001
    outer loop
      vertex -1.800000e+001  1.251629e+002  1.491572e+002
      vertex -3.000000e+000  1.249901e+002  1.488103e+002
      vertex -1.800000e+001  1.249901e+002  1.488103e+002
    endloop
  endfacet
  facet normal  0.000000e+000  9.618264e-001 -2.736600e-001
    outer loop
      vertex -1.800000e+001  1.249901e+002  1.488103e+002
      vertex -3.000000e+000  1.249901e+002  1.488103e+002
      vertex -3.000000e+000  1.248841e+002  1.484376e+002
    endloop
  endfacet
  facet normal  0.000000e+000  9.618264e-001 -2.736600e-001
    outer loop
      vertex -1.800000e+001  1.249901e+002  1.488103e+002
      vertex -3.000000e+000  1.248841e+002  1.484376e+002
      vertex -1.800000e+001  1.248841e+002  1.484376e+002
    endloop
  endfacet
  facet normal  0.000000e+000  9.957337e-001 -9.227340e-002
    outer loop
      vertex -1.800000e+001  1.248841e+002  1.484376e+002
      vertex -3.000000e+000  1.248841e+002  1.484376e+002
      vertex -3.000000e+000  1.248483e+002  1.480517e+002
    endloop
  endfacet
  facet normal  0.000000e+000  9.957337e-001 -9.227340e-002
    outer loop
      vertex -1.800000e+001  1.248841e+002  1.484376e+002
      vertex -3.000000e+000  1.248483e+002  1.480517e+002
      vertex -1.800000e+001  1.248483e+002  1.480517e+002
    endloop
  endfacet
  facet normal  -0.000000e+000  1.837619e-001  9.829708e-001
    outer loop
      vertex -3.000000e+000  1.267546e+002  1.459606e+002
      vertex -1.800000e+001  1.263736e+002  1.460318e+002
      vertex -3.000000e+000  1.263736e+002  1.460318e+002
    endloop
  endfacet
  facet normal  0.000000e+000  3.612603e-001  9.324650e-001
    outer loop
      vertex -3.000000e+000  1.263736e+002  1.460318e+002
      vertex -1.800000e+001  1.263736e+002  1.460318e+002
      vertex -1.800000e+001  1.260123e+002  1.461718e+002
    endloop
  endfacet
  facet normal  -0.000000e+000  3.612603e-001  9.324650e-001
    outer loop
      vertex -3.000000e+000  1.263736e+002  1.460318e+002
      vertex -1.800000e+001  1.260123e+002  1.461718e+002
      vertex -3.000000e+000  1.260123e+002  1.461718e+002
    endloop
  endfacet
  facet normal  0.000000e+000  5.264089e-001  8.502316e-001
    outer loop
      vertex -3.000000e+000  1.260123e+002  1.461718e+002
      vertex -1.800000e+001  1.260123e+002  1.461718e+002
      vertex -1.800000e+001  1.256828e+002  1.463758e+002
    endloop
  endfacet
  facet normal  -0.000000e+000  5.264089e-001  8.502316e-001
    outer loop
      vertex -3.000000e+000  1.260123e+002  1.461718e+002
      vertex -1.800000e+001  1.256828e+002  1.463758e+002
      vertex -3.000000e+000  1.256828e+002  1.463758e+002
    endloop
  endfacet
  facet normal  0.000000e+000  6.737010e-001  7.390040e-001
    outer loop
      vertex -3.000000e+000  1.256828e+002  1.463758e+002
      vertex -1.800000e+001  1.256828e+002  1.463758e+002
      vertex -1.800000e+001  1.253964e+002  1.466369e+002
    endloop
  endfacet
  facet normal  -0.000000e+000  6.737010e-001  7.390040e-001
    outer loop
      vertex -3.000000e+000  1.256828e+002  1.463758e+002
      vertex -1.800000e+001  1.253964e+002  1.466369e+002
      vertex -3.000000e+000  1.253964e+002  1.466369e+002
    endloop
  endfacet
  facet normal  0.000000e+000  7.980159e-001  6.026365e-001
    outer loop
      vertex -3.000000e+000  1.253964e+002  1.466369e+002
      vertex -1.800000e+001  1.253964e+002  1.466369e+002
      vertex -1.800000e+001  1.251629e+002  1.469462e+002
    endloop
  endfacet
  facet normal  -0.000000e+000  7.980159e-001  6.026365e-001
    outer loop
      vertex -3.000000e+000  1.253964e+002  1.466369e+002
      vertex -1.800000e+001  1.251629e+002  1.469462e+002
      vertex -3.000000e+000  1.251629e+002  1.469462e+002
    endloop
  endfacet
  facet normal  0.000000e+000  8.951662e-001  4.457325e-001
    outer loop
      vertex -3.000000e+000  1.251629e+002  1.469462e+002
      vertex -1.800000e+001  1.251629e+002  1.469462e+002
      vertex -1.800000e+001  1.249901e+002  1.472931e+002
    endloop
  endfacet
  facet normal  -0.000000e+000  8.951662e-001  4.457325e-001
    outer loop
      vertex -3.000000e+000  1.251629e+002  1.469462e+002
      vertex -1.800000e+001  1.249901e+002  1.472931e+002
      vertex -3.000000e+000  1.249901e+002  1.472931e+002
    endloop
  endfacet
  facet normal  0.000000e+000  9.618264e-001  2.736600e-001
    outer loop
      vertex -3.000000e+000  1.249901e+002  1.472931e+002
      vertex -1.800000e+001  1.249901e+002  1.472931e+002
      vertex -1.800000e+001  1.248841e+002  1.476658e+002
    endloop
  endfacet
  facet normal  -0.000000e+000  9.618264e-001  2.736600e-001
    outer loop
      vertex -3.000000e+000  1.249901e+002  1.472931e+002
      vertex -1.800000e+001  1.248841e+002  1.476658e+002
      vertex -3.000000e+000  1.248841e+002  1.476658e+002
    endloop
  endfacet
  facet normal  0.000000e+000  9.957337e-001  9.227340e-002
    outer loop
      vertex -3.000000e+000  1.248841e+002  1.476658e+002
      vertex -1.800000e+001  1.248841e+002  1.476658e+002
      vertex -1.800000e+001  1.248483e+002  1.480517e+002
    endloop
  endfacet
  facet normal  -0.000000e+000  9.957337e-001  9.227340e-002
    outer loop
      vertex -3.000000e+000  1.248841e+002  1.476658e+002
      vertex -1.800000e+001  1.248483e+002  1.480517e+002
      vertex -3.000000e+000  1.248483e+002  1.480517e+002
    endloop
  endfacet
  facet normal  0.000000e+000  1.837619e-001  9.829708e-001
    outer loop
      vertex -1.800000e+001  1.263736e+002  1.460318e+002
      vertex -3.000000e+000  1.267546e+002  1.459606e+002
      vertex -1.800000e+001  1.267546e+002  1.459606e+002
    endloop
  endfacet
  facet normal  0.000000e+000  0.000000e+000  1.000000e+000
    outer loop
      vertex -1.800000e+001  1.267546e+002  1.459606e+002
      vertex -3.000000e+000  1.267546e+002  1.459606e+002
      vertex -3.000000e+000  1.271421e+002  1.459606e+002
    endloop
  endfacet
  facet normal  0.000000e+000  0.000000e+000  1.000000e+000
    outer loop
      vertex -1.800000e+001  1.267546e+002  1.459606e+002
      vertex -3.000000e+000  1.271421e+002  1.459606e+002
      vertex -1.800000e+001  1.271421e+002  1.459606e+002
    endloop
  endfacet
  facet normal  0.000000e+000 -1.837619e-001  9.829708e-001
    outer loop
      vertex -1.800000e+001  1.271421e+002  1.459606e+002
      vertex -3.000000e+000  1.271421e+002  1.459606e+002
      vertex -3.000000e+000  1.275230e+002  1.460318e+002
    endloop
  endfacet
  facet normal  0.000000e+000 -1.837619e-001  9.829708e-001
    outer loop
      vertex -1.800000e+001  1.271421e+002  1.459606e+002
      vertex -3.000000e+000  1.275230e+002  1.460318e+002
      vertex -1.800000e+001  1.275230e+002  1.460318e+002
    endloop
  endfacet
  facet normal  0.000000e+000 -3.612603e-001  9.324650e-001
    outer loop
      vertex -1.800000e+001  1.275230e+002  1.460318e+002
      vertex -3.000000e+000  1.275230e+002  1.460318e+002
      vertex -3.000000e+000  1.278844e+002  1.461718e+002
    endloop
  endfacet
  facet normal  0.000000e+000 -3.612603e-001  9.324650e-001
    outer loop
      vertex -1.800000e+001  1.275230e+002  1.460318e+002
      vertex -3.000000e+000  1.278844e+002  1.461718e+002
      vertex -1.800000e+001  1.278844e+002  1.461718e+002
    endloop
  endfacet
  facet normal  0.000000e+000 -5.264089e-001  8.502316e-001
    outer loop
      vertex -1.800000e+001  1.278844e+002  1.461718e+002
      vertex -3.000000e+000  1.278844e+002  1.461718e+002
      vertex -3.000000e+000  1.282139e+002  1.463758e+002
    endloop
  endfacet
  facet normal  0.000000e+000 -5.264089e-001  8.502316e-001
    outer loop
      vertex -1.800000e+001  1.278844e+002  1.461718e+002
      vertex -3.000000e+000  1.282139e+002  1.463758e+002
      vertex -1.800000e+001  1.282139e+002  1.463758e+002
    endloop
  endfacet
  facet normal  0.000000e+000 -6.736913e-001  7.390130e-001
    outer loop
      vertex -1.800000e+001  1.282139e+002  1.463758e+002
      vertex -3.000000e+000  1.282139e+002  1.463758e+002
      vertex -3.000000e+000  1.285002e+002  1.466369e+002
    endloop
  endfacet
  facet normal  0.000000e+000 -6.736913e-001  7.390130e-001
    outer loop
      vertex -1.800000e+001  1.282139e+002  1.463758e+002
      vertex -3.000000e+000  1.285002e+002  1.466369e+002
      vertex -1.800000e+001  1.285002e+002  1.466369e+002
    endloop
  endfacet
  facet normal  0.000000e+000 -7.980159e-001  6.026365e-001
    outer loop
      vertex -1.800000e+001  1.285002e+002  1.466369e+002
      vertex -3.000000e+000  1.285002e+002  1.466369e+002
      vertex -3.000000e+000  1.287338e+002  1.469462e+002
    endloop
  endfacet
  facet normal  0.000000e+000 -7.980159e-001  6.026365e-001
    outer loop
      vertex -1.800000e+001  1.285002e+002  1.466369e+002
      vertex -3.000000e+000  1.287338e+002  1.469462e+002
      vertex -1.800000e+001  1.287338e+002  1.469462e+002
    endloop
  endfacet
  facet normal  0.000000e+000 -8.951740e-001  4.457167e-001
    outer loop
      vertex -1.800000e+001  1.287338e+002  1.469462e+002
      vertex -3.000000e+000  1.287338e+002  1.469462e+002
      vertex -3.000000e+000  1.289065e+002  1.472931e+002
    endloop
  endfacet
  facet normal  0.000000e+000 -8.951740e-001  4.457167e-001
    outer loop
      vertex -1.800000e+001  1.287338e+002  1.469462e+002
      vertex -3.000000e+000  1.289065e+002  1.472931e+002
      vertex -1.800000e+001  1.289065e+002  1.472931e+002
    endloop
  endfacet
  facet normal  0.000000e+000 -9.618264e-001  2.736600e-001
    outer loop
      vertex -1.800000e+001  1.289065e+002  1.472931e+002
      vertex -3.000000e+000  1.289065e+002  1.472931e+002
      vertex -3.000000e+000  1.290126e+002  1.476658e+002
    endloop
  endfacet
  facet normal  0.000000e+000 -9.618264e-001  2.736600e-001
    outer loop
      vertex -1.800000e+001  1.289065e+002  1.472931e+002
      vertex -3.000000e+000  1.290126e+002  1.476658e+002
      vertex -1.800000e+001  1.290126e+002  1.476658e+002
    endloop
  endfacet
  facet normal  0.000000e+000 -9.957318e-001  9.229291e-002
    outer loop
      vertex -1.800000e+001  1.290126e+002  1.476658e+002
      vertex -3.000000e+000  1.290126e+002  1.476658e+002
      vertex -3.000000e+000  1.290483e+002  1.480517e+002
    endloop
  endfacet
  facet normal  0.000000e+000 -9.957318e-001  9.229291e-002
    outer loop
      vertex -1.800000e+001  1.290126e+002  1.476658e+002
      vertex -3.000000e+000  1.290483e+002  1.480517e+002
      vertex -1.800000e+001  1.290483e+002  1.480517e+002
    endloop
  endfacet
  facet normal  0.000000e+000 -6.615286e-001  7.499200e-001
    outer loop
      vertex -3.000000e+000  1.263010e+002  1.530223e+002
      vertex -1.800000e+001  1.263010e+002  1.530223e+002
      vertex -3.000000e+000  1.251535e+002  1.520100e+002
    endloop
  endfacet
  facet normal  0.000000e+000 -6.615286e-001  7.499200e-001
    outer loop
      vertex -3.000000e+000  1.251535e+002  1.520100e+002
      vertex -1.800000e+001  1.263010e+002  1.530223e+002
      vertex -1.800000e+001  1.251535e+002  1.520100e+002
    endloop
  endfacet
  facet normal  0.000000e+000 -6.922094e-001  7.216967e-001
    outer loop
      vertex -3.000000e+000  1.251535e+002  1.520100e+002
      vertex -1.800000e+001  1.251535e+002  1.520100e+002
      vertex -3.000000e+000  1.240492e+002  1.509508e+002
    endloop
  endfacet
  facet normal  0.000000e+000 -6.922094e-001  7.216967e-001
    outer loop
      vertex -3.000000e+000  1.240492e+002  1.509508e+002
      vertex -1.800000e+001  1.251535e+002  1.520100e+002
      vertex -1.800000e+001  1.240492e+002  1.509508e+002
    endloop
  endfacet
  facet normal  0.000000e+000 -7.216942e-001  6.922120e-001
    outer loop
      vertex -3.000000e+000  1.240492e+002  1.509508e+002
      vertex -1.800000e+001  1.240492e+002  1.509508e+002
      vertex -3.000000e+000  1.229900e+002  1.498465e+002
    endloop
  endfacet
  facet normal  0.000000e+000 -7.216942e-001  6.922120e-001
    outer loop
      vertex -3.000000e+000  1.229900e+002  1.498465e+002
      vertex -1.800000e+001  1.240492e+002  1.509508e+002
      vertex -1.800000e+001  1.229900e+002  1.498465e+002
    endloop
  endfacet
  facet normal  0.000000e+000 -7.499224e-001  6.615258e-001
    outer loop
      vertex -3.000000e+000  1.229900e+002  1.498465e+002
      vertex -1.800000e+001  1.229900e+002  1.498465e+002
      vertex -3.000000e+000  1.219777e+002  1.486990e+002
    endloop
  endfacet
  facet normal  0.000000e+000 -7.499224e-001  6.615258e-001
    outer loop
      vertex -3.000000e+000  1.219777e+002  1.486990e+002
      vertex -1.800000e+001  1.229900e+002  1.498465e+002
      vertex -1.800000e+001  1.219777e+002  1.486990e+002
    endloop
  endfacet
endsolid CATIA STL
